<svg xmlns="http://www.w3.org/2000/svg" width="88" height="88" viewBox="0 0 88 88"><defs><mask id="t5xob" width="2" height="2" x="-1" y="-1"><path fill="#fff" d="M14 6h60v60H14z"/><path d="M20 6h48a6 6 0 0 1 6 6v48a6 6 0 0 1-6 6H20a6 6 0 0 1-6-6V12a6 6 0 0 1 6-6z"/></mask><filter id="t5xoa" width="112" height="120" x="-12" y="-20" filterUnits="userSpaceOnUse"><feOffset dy="8" in="SourceGraphic" result="FeOffset1077Out"/><feGaussianBlur in="FeOffset1077Out" result="FeGaussianBlur1078Out" stdDeviation="6.4 6.4"/></filter></defs><g><g><g filter="url(#t5xoa)"><path fill="none" d="M20 6h48a6 6 0 0 1 6 6v48a6 6 0 0 1-6 6H20a6 6 0 0 1-6-6V12a6 6 0 0 1 6-6z" mask="url(&quot;#t5xob&quot;)"/><path fill="#1085e4" fill-opacity=".4" d="M20 6h48a6 6 0 0 1 6 6v48a6 6 0 0 1-6 6H20a6 6 0 0 1-6-6V12a6 6 0 0 1 6-6z"/></g><path fill="#1085e4" d="M20 6h48a6 6 0 0 1 6 6v48a6 6 0 0 1-6 6H20a6 6 0 0 1-6-6V12a6 6 0 0 1 6-6z"/></g><g><path fill="#fff" d="M37.137 41.728a.585.585 0 0 1-.829.004l-.019-.02a.586.586 0 0 1 .827-.83l.017.017c.23.228.232.599.004.829zm12.575-.016a9.497 9.497 0 0 1-11.493 1.49.586.586 0 0 1 .591-1.011 8.324 8.324 0 0 0 10.073-1.308c3.244-3.244 3.244-8.522 0-11.767-3.244-3.244-8.522-3.244-11.766 0a8.332 8.332 0 0 0-1.332 10.032.586.586 0 0 1-1.015.585 9.506 9.506 0 0 1 1.518-11.446c3.701-3.7 9.723-3.7 13.424 0 3.7 3.702 3.7 9.724 0 13.425zM58 37.563c0 .288-.21.534-.494.579l-2.162.344-1.146 2.769 1.287 1.77a.586.586 0 0 1-.06.76l-3.631 3.634a.587.587 0 0 1-.759.06l-1.772-1.286-2.767 1.147-.343 2.163a.586.586 0 0 1-.579.495L40.437 50a.586.586 0 0 1-.58-.494l-.343-2.162-2.77-1.146-1.77 1.287a.586.586 0 0 1-.759-.06l-3.634-3.631a.586.586 0 0 1-.06-.759l1.286-1.772-1.148-2.767-2.163-.343a.586.586 0 0 1-.494-.58L28 32.437c0-.288.21-.533.494-.578l2.162-.345 1.145-2.769-1.286-1.77a.586.586 0 0 1 .06-.76l3.631-3.633a.585.585 0 0 1 .758-.06l1.773 1.285 2.767-1.147.343-2.163a.586.586 0 0 1 .578-.494L45.563 20c.288 0 .534.209.579.493l.344 2.162 2.77 1.146 1.77-1.287a.585.585 0 0 1 .759.06l3.634 3.632c.204.203.23.525.06.758l-1.286 1.773 1.148 2.767 2.163.343c.284.045.494.29.494.578zm-1.172-.5l-.002-4.137-1.993-.316a.586.586 0 0 1-.45-.354l-1.398-3.373a.586.586 0 0 1 .067-.569l1.185-1.633-2.927-2.924-1.631 1.185a.586.586 0 0 1-.569.067l-3.375-1.396a.585.585 0 0 1-.355-.45l-.317-1.991-4.137.001-.316 1.994a.587.587 0 0 1-.354.449l-3.373 1.398a.585.585 0 0 1-.568-.067l-1.634-1.184-2.924 2.926 1.185 1.632c.12.165.146.38.068.568l-1.397 3.375a.585.585 0 0 1-.45.355l-1.99.317v4.138l1.994.315a.586.586 0 0 1 .45.354l1.398 3.374a.586.586 0 0 1-.067.568l-1.185 1.633 2.927 2.925 1.631-1.185a.586.586 0 0 1 .569-.068l3.375 1.397a.586.586 0 0 1 .355.45l.317 1.99 4.137-.001.316-1.993a.585.585 0 0 1 .354-.45l3.373-1.398a.584.584 0 0 1 .568.067l1.634 1.184 2.924-2.926-1.185-1.632a.586.586 0 0 1-.068-.568l1.397-3.375a.586.586 0 0 1 .45-.355zm-7.655 2.298a.587.587 0 0 1-.958.196l-.844-.844a.462.462 0 0 0-.652.653l.846.846a.585.585 0 0 1-.195.957 3.263 3.263 0 0 1-3.528-.717 3.275 3.275 0 0 1-.917-2.808l-2.57-2.571a3.243 3.243 0 0 1-2.693-.803 3.276 3.276 0 0 1-.832-3.641.585.585 0 0 1 .958-.195l.852.853a.462.462 0 0 0 .653-.653l-.85-.85a.585.585 0 0 1 .197-.957 3.259 3.259 0 0 1 4.435 3.526l2.573 2.573a3.243 3.243 0 0 1 2.69.804 3.278 3.278 0 0 1 .835 3.631zm-.953-1.456a2.1 2.1 0 0 0-.67-1.308 2.087 2.087 0 0 0-1.943-.467.584.584 0 0 1-.564-.152l-3.02-3.02a.585.585 0 0 1-.152-.565 2.098 2.098 0 0 0-.541-2.017 2.084 2.084 0 0 0-1.236-.598l.027.028a1.635 1.635 0 0 1 0 2.31 1.635 1.635 0 0 1-2.31 0l-.033-.034a2.1 2.1 0 0 0 .672 1.32c.524.476 1.251.65 1.945.467a.585.585 0 0 1 .565.152l3.018 3.018a.585.585 0 0 1 .151.566 2.088 2.088 0 0 0 1.79 2.618l-.029-.029a1.635 1.635 0 0 1 0-2.31 1.635 1.635 0 0 1 2.31 0zm.032-6.267a.585.585 0 0 1-.823-.1 5.637 5.637 0 0 0-3.189-2.023.585.585 0 1 1 .257-1.143 6.81 6.81 0 0 1 3.855 2.443c.2.255.155.624-.1.823zm.84 2.027a.586.586 0 0 1-.736-.38l-.008-.023a.586.586 0 0 1 1.115-.36l.008.026a.586.586 0 0 1-.38.737z"/></g></g></svg>