<svg xmlns="http://www.w3.org/2000/svg" width="79" height="82" viewBox="0 0 79 82"><g><g><path fill="#f4faff" d="M39.5 0C61.315 0 79 17.685 79 39.5S61.315 79 39.5 79 0 61.315 0 39.5 17.685 0 39.5 0z"/></g><g><path fill="#1085e4" d="M52.515 74.415c0 2.253-1.87 4.086-4.168 4.086-2.299 0-4.168-1.833-4.168-4.086s1.87-4.086 4.168-4.086c2.297 0 4.168 1.833 4.168 4.086zm-2.382 0c0-.965-.802-1.751-1.786-1.751-.985 0-1.787.786-1.787 1.751 0 .966.802 1.751 1.787 1.751.984 0 1.786-.785 1.786-1.751zm-1.19-23.93c0-2.575 2.136-4.67 4.763-4.67s4.763 2.095 4.763 4.67c0 2.575-2.136 4.67-4.763 4.67-2.629 0-4.764-2.095-4.764-4.67zm2.38 0c0 1.287 1.07 2.334 2.383 2.334s2.381-1.047 2.381-2.334c0-1.288-1.068-2.335-2.381-2.335-1.314 0-2.382 1.047-2.382 2.335zm-27.04-24.856a1.15 1.15 0 0 1 0-1.65l2.382-2.335a1.207 1.207 0 0 1 1.684 0 1.15 1.15 0 0 1 0 1.65l-2.382 2.335a1.2 1.2 0 0 1-.842.342 1.2 1.2 0 0 1-.842-.342zm42.564 23.778l-.68.667a9.76 9.76 0 0 1 1.829 5.664c0 2.94-1.295 5.661-3.573 7.554v3.537h2.382v15.175H35.843V66.83h2.381v-2.097L25.415 52.224a1.741 1.741 0 0 1-.27-.282C23.7 51 22.743 49.39 22.743 47.567c0-1.95 1.104-3.638 2.719-4.544l-5.847-5.732-4.482-4.392a3.8 3.8 0 0 1 0-5.438l14.662-14.373c1.528-1.5 4.017-1.5 5.547 0l4.482 4.393.945.927a5.396 5.396 0 0 1 4.004-1.776c2.954 0 5.359 2.357 5.359 5.253 0 .214-.022.422-.048.63a5.38 5.38 0 0 1 .643-.046c2.955 0 5.36 2.357 5.36 5.253 0 .214-.022.421-.048.63a5.38 5.38 0 0 1 .643-.046c2.954 0 5.358 2.356 5.358 5.253 0 .213-.021.421-.047.63.212-.026.426-.047.643-.047 2.954 0 5.359 2.357 5.359 5.253a5.198 5.198 0 0 1-1.812 3.924l.664.651a3.781 3.781 0 0 1 1.149 2.719 3.782 3.782 0 0 1-1.15 2.718zm-4.211-12.931a3 3 0 0 0-2.319 1.093l4.181 4.099a2.894 2.894 0 0 0 1.116-2.273c0-1.61-1.336-2.918-2.978-2.92zm-5.954-5.837a3 3 0 0 0-2.32 1.094l4.182 4.098a2.894 2.894 0 0 0 1.116-2.272c0-1.61-1.336-2.919-2.978-2.92zm-5.955-5.836c-.913 0-1.761.413-2.318 1.093l4.18 4.099a2.896 2.896 0 0 0 1.117-2.273c0-1.61-1.337-2.918-2.979-2.92zm-8.273-4.743l4.181 4.098a2.894 2.894 0 0 0 1.116-2.273c0-1.61-1.335-2.918-2.977-2.918-.915 0-1.762.413-2.32 1.093zm-22.84 13.93l16.842-16.508-2.797-2.742a1.552 1.552 0 0 0-.508-.329c-.083-.034-.177-.033-.265-.052a1.538 1.538 0 0 0-.634 0c-.088.02-.182.018-.265.052a1.54 1.54 0 0 0-.508.329L16.817 29.112c-.6.59-.6 1.548 0 2.137zm1.683 1.651l6.807 6.673H40.01c2.955 0 5.36 2.356 5.36 5.253 0 2.895-2.405 5.252-5.36 5.252h-1.186l9.498 9.311c.6.591 1.581.588 2.18 0l14.14-13.862.52-.511a1.49 1.49 0 0 0 0-2.136l-1.119-1.097-5.954-5.837-.682-.67-5.272-5.167-.683-.669-5.272-5.168-.682-.668-5.954-5.837-1.403-1.375zm3.827 11.926c0 1.61 1.335 2.918 2.977 2.918h11.908c1.643 0 2.978-1.309 2.978-2.918 0-1.61-1.335-2.918-2.978-2.918H28.101c-.05 0-.099.01-.148.017l-.494.055c-1.333.289-2.334 1.453-2.335 2.846zm29.772 32.1V75.67c0-3.588-2.978-6.507-6.637-6.507H38.224v10.506zm9.527-10.505h-10.08c1.8 1.618 2.935 3.932 2.935 6.507v3.999h7.145zm-12.24-5.382a3.955 3.955 0 0 1-2.774 1.124 3.956 3.956 0 0 1-2.774-1.124l-11.18-10.962h-6.056L39.97 63.142c.104.076.16.118.214.164l.42.349v3.172h21.438v-4.68l.474-.35c1.97-1.453 3.098-3.66 3.098-6.06a7.44 7.44 0 0 0-1.16-3.982z"/></g></g></svg>