<svg xmlns="http://www.w3.org/2000/svg" width="73" height="79" viewBox="0 0 73 79"><g><g><path fill="#f4faff" d="M10 16h63v63H10z"/></g><g><path fill="#1085e4" d="M55 17.016V70H0V0h37.931zm-16.383-.683h12.388L38.617 3.983zm14.042 51.333v-49H36.277V2.333H2.34v65.333zm-42.127-49c0-.645.524-1.166 1.17-1.166h10.532a1.168 1.168 0 1 1 0 2.333H11.702c-.646 0-1.17-.521-1.17-1.167zm22.234 25.667c0 .645-.524 1.167-1.17 1.167H11.702c-.646 0-1.17-.522-1.17-1.167s.524-1.167 1.17-1.167h19.894c.646 0 1.17.522 1.17 1.167zm11.702-8.167c0 .645-.524 1.167-1.17 1.167h-8.192c-.646 0-1.17-.522-1.17-1.167S34.46 35 35.106 35h8.192c.646 0 1.17.521 1.17 1.166zM10.532 28c0-.645.524-1.167 1.17-1.167h5.851c.646 0 1.17.522 1.17 1.167s-.524 1.166-1.17 1.166h-5.85c-.647 0-1.171-.521-1.171-1.166zm17.553 0c0-.645.524-1.167 1.17-1.167h8.192c.646 0 1.17.522 1.17 1.167s-.524 1.166-1.17 1.166h-8.192c-.646 0-1.17-.521-1.17-1.166zm-5.512-.829c.445-.431 1.23-.431 1.662 0 .21.22.34.524.34.829 0 .303-.13.607-.34.828a1.23 1.23 0 0 1-.83.338c-.305 0-.61-.128-.832-.338a1.223 1.223 0 0 1-.339-.828c0-.305.129-.608.34-.829zM29.255 35a1.168 1.168 0 1 1 0 2.333H17.553c-.646 0-1.17-.522-1.17-1.167S16.907 35 17.553 35zm-18.384 1.995a1.226 1.226 0 0 1-.34-.829c0-.316.13-.607.34-.828.433-.432 1.229-.432 1.662 0 .21.22.34.524.34.828 0 .304-.13.607-.34.829-.222.21-.527.338-.83.338-.305 0-.61-.128-.832-.338zM44.468 52.5c0 .645-.524 1.166-1.17 1.166h-8.192a1.168 1.168 0 1 1 0-2.333h8.192c.646 0 1.17.521 1.17 1.167zm-14.043 0c0 .645-.524 1.166-1.17 1.166H17.553a1.168 1.168 0 1 1 0-2.333h11.702c.646 0 1.17.521 1.17 1.167zm-17.892-.817c.21.209.34.5.34.817 0 .303-.13.606-.34.828-.222.21-.515.338-.83.338a1.23 1.23 0 0 1-.832-.338 1.18 1.18 0 0 1 0-1.657c.445-.431 1.229-.431 1.662.012zM44.129 27.17c.222.22.339.524.339.829 0 .303-.117.607-.34.828-.222.21-.526.338-.83.338-.304 0-.609-.128-.831-.338a1.223 1.223 0 0 1-.34-.828c0-.305.13-.608.34-.829.445-.431 1.217-.431 1.662 0zM37.447 45.5c-.316 0-.609-.118-.831-.339a1.225 1.225 0 0 1-.34-.828c0-.304.13-.608.34-.828.433-.432 1.217-.432 1.662 0 .21.22.339.524.339.828 0 .303-.129.607-.34.828-.222.21-.514.339-.83.339zm6.682-1.995c.21.22.339.524.339.828 0 .303-.129.607-.34.828-.222.21-.514.339-.83.339-.316 0-.609-.129-.831-.339a1.226 1.226 0 0 1-.34-.828c0-.304.13-.608.34-.828.433-.432 1.229-.432 1.662 0z"/></g></g></svg>