<svg xmlns="http://www.w3.org/2000/svg" width="89" height="85" viewBox="0 0 89 85"><g><g><path fill="#f4faff" d="M25 0h54c5.523 0 10 4.477 10 10v54c0 5.522-4.477 10-10 10H25c-5.523 0-10-4.478-10-10V10c0-5.523 4.477-10 10-10z"/></g><g><path fill="#1085e4" d="M72.997 69.378c-.009.76-.638 1.369-1.405 1.36a1.32 1.32 0 0 1-.375 0l-7.734-2.065c-1.555-.413-3.402 1.129-3.985 3.29a5.014 5.014 0 0 0 .139 3.25c.266.753.872 1.339 1.638 1.583l7.818 2.08a1.369 1.369 0 0 1 .625 2.23 12.773 12.773 0 0 1-11.184 3.608c-6.92-1.154-11.586-7.652-10.422-14.513l-13.47-13.356-4.443 4.503 1.014 1.005a2.737 2.737 0 0 1 0 3.979l-1.389 1.377a2.795 2.795 0 0 1-3.818.151L9.566 84.148a2.794 2.794 0 0 1-4.013 0L.858 79.495a2.737 2.737 0 0 1 0-3.98l16.427-16.26a2.738 2.738 0 0 1 .152-3.787l1.389-1.377a2.92 2.92 0 0 1 4.013 0l1.014.991 4.47-4.433-10.33-10.244c-1.333.566-2.754.9-4.2.99C6.79 41.831.756 36.555.316 29.611a1.364 1.364 0 0 1 .17-.752 1.394 1.394 0 0 1 1.885-.543l5.846 3.14c1.403.77 3.555-.248 4.68-2.23 1.124-1.984.847-4.324-.542-5.109l-6.304-3.483a1.37 1.37 0 0 1-.097-2.34c2.706-1.789 6-2.48 9.204-1.932 6.914 1.183 11.553 7.7 10.36 14.557L36.879 42.18 53.43 25.797l.11-3.883c.015-.472.272-.902.681-1.143l9.456-5.577a1.399 1.399 0 0 1 1.694.207l4.86 4.82c.45.446.535 1.138.209 1.68l-5.624 9.375a1.39 1.39 0 0 1-1.153.675l-3.93.11-16.593 16.33 12.497 12.392a12.866 12.866 0 0 1 5.013-1.019 12.674 12.674 0 0 1 8.984 3.69 12.576 12.576 0 0 1 3.208 5.274c.105.2.158.423.155.65zM38.836 44.123l2.388 2.368 16.94-16.784c.252-.248.59-.39.945-.4l3.777-.137 4.582-7.793-3.333-3.305-7.873 4.64-.11 3.677a1.371 1.371 0 0 1-.403.936zm-14.83 21.755l-2.277-2.342-2.388-2.368-16.51 16.33 4.762 4.696zm5.249-1.57l-8.332-8.371-1.388 1.376 5.832 5.824.708.703 1.833 1.831zm3.388-9.35l-2.388-2.367-4.472 4.433 2.389 2.369zM69.19 67.365a9.932 9.932 0 0 0-8.554-4.846c-1.62 0-3.217.393-4.651 1.143a1.398 1.398 0 0 1-1.625-.248l-31.368-31.09a1.37 1.37 0 0 1-.374-1.28 9.767 9.767 0 0 0-.322-5.538c-1.844-5.12-7.526-7.788-12.69-5.96l4.041 2.273c2.778 1.542 3.513 5.521 1.625 8.867a7.25 7.25 0 0 1-6.04 3.91 4.932 4.932 0 0 1-2.416-.62L3.65 32.227c1.422 3.895 5.153 6.489 9.331 6.485 1.621 0 3.218-.393 4.652-1.143.53-.3 1.194-.221 1.638.192L50.57 68.824c.34.334.48.818.375 1.28A9.773 9.773 0 0 0 52.08 77.4c2.806 4.67 8.9 6.2 13.61 3.418l-5.165-1.377a5.274 5.274 0 0 1-3.485-3.167 7.745 7.745 0 0 1-.264-5.026c.598-2.952 3.096-5.154 6.124-5.397.426 0 .851.055 1.263.165z"/></g></g></svg>