<svg xmlns="http://www.w3.org/2000/svg" width="103" height="92" viewBox="0 0 103 92"><g><g><path fill="#f4faff" d="M93.267 82.213L36.97 91.13 11.09 40.343 51.397.038l50.787 25.877z"/></g><g><path fill="#1085e4" d="M70 53.759v7.777c0 .64-.467 1.184-1.1 1.28l-4.255.655a7.011 7.011 0 0 0-5.39 4.15 7.014 7.014 0 0 0 .625 6.773l2.315 3.419a1.296 1.296 0 0 1-.157 1.644l-5.499 5.499a1.295 1.295 0 0 1-1.682.129l-2.443-1.79a7.006 7.006 0 0 0-6.866-.83 6.997 6.997 0 0 0-4.27 5.442l-.46 2.994A1.294 1.294 0 0 1 39.537 92h-7.778c-.62 0-1.156-.44-1.273-1.051l-.78-4.056a7.013 7.013 0 0 0-4.348-5.23 7.004 7.004 0 0 0-6.743.877l-3.473 2.546c-.517.38-1.23.322-1.683-.13l-5.498-5.498a1.297 1.297 0 0 1-.157-1.644l2.315-3.42a7.016 7.016 0 0 0 .625-6.773 7.01 7.01 0 0 0-5.389-4.149l-4.256-.654A1.297 1.297 0 0 1 0 61.536V53.76c0-.621.442-1.157 1.05-1.272l4.056-.78a7.017 7.017 0 0 0 5.232-4.347 7.014 7.014 0 0 0-.878-6.744l-2.546-3.473a1.299 1.299 0 0 1 .13-1.684l5.5-5.499c.44-.44 1.129-.504 1.644-.157l4.415 2.993a7.025 7.025 0 0 0 6.651.675 7.03 7.03 0 0 0 4.226-5.182l1.007-5.237A1.296 1.296 0 0 1 31.76 22h7.778c.64 0 1.184.466 1.28 1.098l.655 4.254a7.015 7.015 0 0 0 4.15 5.39c2.228.97 4.76.739 6.772-.625l3.42-2.315a1.296 1.296 0 0 1 1.643.157l5.499 5.499c.452.453.508 1.168.13 1.682l-2.546 3.473a7.008 7.008 0 0 0-.878 6.745 7.007 7.007 0 0 0 5.23 4.348l4.055.78A1.296 1.296 0 0 1 70 53.759zm-2.593 1.07l-3-.575a9.59 9.59 0 0 1-7.156-5.946 9.592 9.592 0 0 1 1.199-9.226l1.889-2.574-3.957-3.957-2.533 1.716a9.598 9.598 0 0 1-9.263.854 9.597 9.597 0 0 1-5.675-7.373l-.486-3.156H32.83l-.805 4.185a9.619 9.619 0 0 1-5.779 7.088 9.607 9.607 0 0 1-9.097-.925l-3.53-2.391-3.957 3.956 1.89 2.577a9.596 9.596 0 0 1 1.2 9.226 9.595 9.595 0 0 1-7.156 5.946l-3.003.577v5.594l3.155.485a9.594 9.594 0 0 1 7.372 5.675 9.593 9.593 0 0 1-.855 9.263L10.55 78.38l3.957 3.956 2.575-1.889a9.597 9.597 0 0 1 9.223-1.2 9.596 9.596 0 0 1 5.948 7.157l.578 3.002h5.595l.29-1.892a9.57 9.57 0 0 1 5.84-7.443 9.577 9.577 0 0 1 9.393 1.134l1.545 1.132 3.956-3.956-1.715-2.533a9.594 9.594 0 0 1-.855-9.263 9.593 9.593 0 0 1 7.372-5.676l3.156-.485zM49.26 57.649c0 7.505-6.105 13.61-13.611 13.61-7.505 0-13.611-6.105-13.611-13.61 0-7.506 6.106-13.611 13.611-13.611 7.506 0 13.611 6.105 13.611 13.61zm-2.592 0c0-6.076-4.943-11.019-11.019-11.019-6.076 0-11.018 4.943-11.018 11.019 0 6.075 4.942 11.019 11.018 11.019 6.076 0 11.019-4.944 11.019-11.02zm-3.89 0c0 3.93-3.197 7.13-7.129 7.13-3.932 0-7.13-3.2-7.13-7.13 0-3.93 3.198-7.13 7.13-7.13s7.13 3.2 7.13 7.13zm-2.592 0a4.542 4.542 0 0 0-4.537-4.538 4.542 4.542 0 0 0-4.537 4.538 4.542 4.542 0 0 0 4.537 4.537 4.542 4.542 0 0 0 4.537-4.537z"/></g></g></svg>