<svg xmlns="http://www.w3.org/2000/svg" width="85" height="90" viewBox="0 0 85 90"><g><g><path fill="#f4faff" d="M49.997.007l34.991 19.998v39.997L49.998 80 15.005 60.002V20.005z"/></g><g><path fill="#1085e4" d="M37.755 65.64h-1.61v6.746h1.61a1.117 1.117 0 1 1 0 2.234h-23.81a1.117 1.117 0 1 1 0-2.234h8.59V65.64H2.4a2.403 2.403 0 0 1-2.4-2.4V22.4C0 21.075 1.077 20 2.4 20H56.28c1.323 0 2.4 1.076 2.4 2.4v19.66a1.117 1.117 0 1 1-2.234 0V22.4a.17.17 0 0 0-.166-.166H2.4a.17.17 0 0 0-.166.165V63.24a.17.17 0 0 0 .166.166h35.355a1.117 1.117 0 0 1 0 2.234zm-3.843 0h-9.143v6.746h9.143zm4.96-8.687c0 .617-.5 1.117-1.117 1.117H5.585a1.117 1.117 0 1 1 0-2.235h32.17c.617 0 1.117.5 1.117 1.118zM70 47.81V87.6c0 1.323-1.077 2.4-2.4 2.4H43.506a2.403 2.403 0 0 1-2.4-2.4V47.81c0-1.323 1.077-2.4 2.4-2.4H67.6c1.323 0 2.4 1.077 2.4 2.4zM43.34 78.83h24.426V52.111H43.34zm0-31.02v2.068h24.426V47.81a.17.17 0 0 0-.166-.166H43.506a.17.17 0 0 0-.166.166zM67.766 87.6v-6.536H43.34V87.6a.17.17 0 0 0 .166.165H67.6a.17.17 0 0 0 .166-.165zm-8.862-3.186c0 .617-.5 1.117-1.117 1.117H53.32a1.117 1.117 0 1 1 0-2.233h4.468c.617 0 1.117.5 1.117 1.116z"/></g></g></svg>