<svg xmlns="http://www.w3.org/2000/svg" width="100" height="87" viewBox="0 0 100 87"><g><g><path fill="#f4faff" d="M73.545 19.557C73.187 6.244 65.555-4.638 55.376 2c-3.6 2.35-5.558 6.887-9.125 9.303-3.282 2.224-7.376 2.51-11.209 2.496-7.76-.029-16.782-3.451-19.112 7.252-1.586 7.288 7.58 11.936 5.34 18.952-.698 2.192-2.87 3.813-4.654 5.181-4.43 3.398-7.73 6.317-11.01 11.144-6.142 9.034-6.578 13.242-4.43 18.93 2.328 6.168 11.036 11.957 18.262 9.064 8.668-3.469 7.848-10.872 17.493-14.705 8.14-3.237 10.618 3.703 13.67 9.38 5.758 10.709 16.942 10.3 24.559 1.006 2.48-3.028 6.714-9.644 5.876-13.978-.676-3.497-5.236-5.607-7.446-7.976-7.77-8.331 5.283-11.325 12.129-14.386 6.543-2.924 17.09-8.939 13.606-19.79-1.195-3.722-9.531-7.054-12.89-5.756-4.752 1.837-12.753 6.588-12.89 1.439z"/></g><g><path fill="#1085e4" d="M84 54.641v1.321c0 6.208-5.022 11.226-11.232 11.226h-4.625a2.65 2.65 0 0 1-2.643-2.641v-18.49a2.65 2.65 0 0 1 2.643-2.643h2.643c0-13.141-10.638-23.773-23.786-23.773-13.148 0-23.786 10.632-23.786 23.773h2.643a2.65 2.65 0 0 1 2.643 2.643v18.49a2.65 2.65 0 0 1-2.643 2.641h-.925l3.832 6.01c2.775 4.49 7.598 7.198 12.884 7.198h.925c.595-2.245 2.643-3.962 5.088-3.962 2.907 0 5.285 2.377 5.285 5.283 0 2.906-2.378 5.282-5.285 5.282-2.445 0-4.493-1.716-5.088-3.962h-.925c-6.21 0-11.827-3.103-15.13-8.386l-4.691-7.463h-.595C15.022 67.188 10 62.17 10 55.962v-1.32C10 48.697 14.69 43.81 20.57 43.48v-.067C20.571 28.82 32.398 17 47 17c14.602 0 26.429 11.82 26.429 26.48 5.88.331 10.57 5.218 10.57 11.161zM45.018 81.717a2.65 2.65 0 0 0 2.643 2.641 2.65 2.65 0 0 0 2.642-2.641 2.65 2.65 0 0 0-2.642-2.642 2.65 2.65 0 0 0-2.643 2.642zm-23.786-35.66a8.57 8.57 0 0 0-8.59 8.584v1.32a8.57 8.57 0 0 0 8.59 8.586h4.625v-18.49zm60.125 8.584a8.57 8.57 0 0 0-8.59-8.584h-4.624v18.49h4.625a8.57 8.57 0 0 0 8.589-8.585zm-22.86-25.886c-.265.462-.661.66-1.124.66-.198 0-.462-.066-.66-.198-.199-.067-.397-.198-.595-.33-.198-.132-.397-.265-.529-.33-.66-.397-.793-1.123-.462-1.783.33-.661 1.189-.859 1.784-.463.132.066.33.198.528.33.198.133.397.265.529.33.66.397.859 1.189.528 1.784zm-7.335-4.69c.661.2 1.19.925.992 1.585-.199.66-.86 1.124-1.586.991A16.427 16.427 0 0 0 47 26.245c-4.823 0-9.382 2.113-12.554 5.745-.264.33-.594.462-.99.462-.331 0-.595-.132-.86-.33-.528-.462-.594-1.32-.132-1.849A19.14 19.14 0 0 1 47 23.603c1.387 0 2.775.133 4.162.463z"/></g></g></svg>